# Blender v2.80 (sub 75) OBJ File: ''
# www.blender.org
mtllib five.mtl
o Text
v -0.284179 1.553897 0.087621
v 0.226606 1.553897 0.085760
v 0.226444 0.745050 0.041442
v 0.165401 0.760687 0.042521
v 0.108805 0.767043 0.043076
v 0.056819 0.764809 0.043143
v 0.009608 0.754670 0.042759
v -0.032664 0.737317 0.041962
v -0.069834 0.713437 0.040789
v -0.101736 0.683718 0.039277
v -0.128208 0.648849 0.037463
v -0.149085 0.609518 0.035384
v -0.164203 0.566414 0.033077
v -0.173398 0.520224 0.030580
v -0.176506 0.471637 0.027929
v -0.174316 0.434055 0.025862
v -0.167928 0.397873 0.023856
v -0.157642 0.363447 0.021932
v -0.143756 0.331133 0.020111
v -0.126568 0.301288 0.018414
v -0.106376 0.274267 0.016859
v -0.083480 0.250427 0.015470
v -0.058177 0.230123 0.014265
v -0.030766 0.213711 0.013266
v -0.001546 0.201547 0.012493
v 0.029186 0.193988 0.011967
v 0.061130 0.191389 0.011708
v 0.082201 0.192195 0.011676
v 0.103266 0.194606 0.011731
v 0.124321 0.198616 0.011874
v 0.145358 0.204216 0.012104
v 0.166371 0.211398 0.012421
v 0.187356 0.220154 0.012825
v 0.208307 0.230477 0.013314
v 0.229216 0.242359 0.013889
v 0.250079 0.255791 0.014549
v 0.270890 0.270765 0.015293
v 0.291642 0.287275 0.016122
v 0.312330 0.305311 0.017035
v 0.312284 0.075189 0.004427
v 0.287814 0.058947 0.003626
v 0.264047 0.044366 0.002914
v 0.240842 0.031400 0.002288
v 0.218058 0.020000 0.001746
v 0.195556 0.010118 0.001286
v 0.173195 0.001709 0.000907
v 0.150834 -0.005277 0.000606
v 0.128332 -0.010886 0.000380
v 0.105550 -0.015166 0.000229
v 0.082347 -0.018164 0.000149
v 0.058582 -0.019928 0.000139
v 0.034115 -0.020506 0.000197
v -0.018963 -0.016215 0.000625
v -0.069236 -0.003650 0.001497
v -0.116358 0.016732 0.002785
v -0.159984 0.044472 0.004464
v -0.199769 0.079110 0.006507
v -0.235367 0.120188 0.008887
v -0.266434 0.167247 0.011579
v -0.292624 0.219827 0.014555
v -0.313592 0.277471 0.017790
v -0.328992 0.339720 0.021257
v -0.338480 0.406114 0.024929
v -0.341710 0.476194 0.028781
v -0.338427 0.546487 0.032620
v -0.328743 0.613418 0.036252
v -0.312854 0.676377 0.039644
v -0.290960 0.734755 0.042763
v -0.263262 0.787944 0.045576
v -0.229957 0.835333 0.048051
v -0.191244 0.876315 0.050156
v -0.147324 0.910279 0.051857
v -0.098395 0.936617 0.053122
v -0.044655 0.954720 0.053918
v 0.013694 0.963977 0.054213
v 0.076456 0.963781 0.053973
v 0.076533 1.353394 0.075321
v -0.284219 1.353394 0.076635
vn -0.0036 0.0547 -0.9985
usemtl None
s off
f 3//1 77//1 2//1
f 77//1 1//1 2//1
f 77//1 78//1 1//1
f 3//1 76//1 77//1
f 76//1 74//1 75//1
f 3//1 74//1 76//1
f 3//1 73//1 74//1
f 3//1 72//1 73//1
f 3//1 71//1 72//1
f 3//1 4//1 71//1
f 4//1 70//1 71//1
f 4//1 5//1 70//1
f 5//1 69//1 70//1
f 5//1 6//1 69//1
f 6//1 68//1 69//1
f 7//1 68//1 6//1
f 8//1 68//1 7//1
f 9//1 68//1 8//1
f 9//1 67//1 68//1
f 10//1 67//1 9//1
f 11//1 67//1 10//1
f 11//1 66//1 67//1
f 12//1 66//1 11//1
f 12//1 65//1 66//1
f 13//1 65//1 12//1
f 14//1 65//1 13//1
f 14//1 64//1 65//1
f 15//1 64//1 14//1
f 15//1 63//1 64//1
f 16//1 63//1 15//1
f 17//1 63//1 16//1
f 17//1 62//1 63//1
f 18//1 62//1 17//1
f 19//1 62//1 18//1
f 19//1 61//1 62//1
f 20//1 61//1 19//1
f 40//1 38//1 39//1
f 21//1 61//1 20//1
f 40//1 37//1 38//1
f 21//1 60//1 61//1
f 22//1 60//1 21//1
f 40//1 36//1 37//1
f 40//1 35//1 36//1
f 23//1 60//1 22//1
f 40//1 34//1 35//1
f 40//1 33//1 34//1
f 24//1 60//1 23//1
f 40//1 32//1 33//1
f 24//1 59//1 60//1
f 25//1 59//1 24//1
f 40//1 31//1 32//1
f 40//1 30//1 31//1
f 26//1 59//1 25//1
f 40//1 29//1 30//1
f 40//1 28//1 29//1
f 27//1 59//1 26//1
f 40//1 27//1 28//1
f 40//1 59//1 27//1
f 40//1 58//1 59//1
f 40//1 57//1 58//1
f 40//1 56//1 57//1
f 41//1 56//1 40//1
f 42//1 56//1 41//1
f 42//1 55//1 56//1
f 43//1 55//1 42//1
f 44//1 55//1 43//1
f 45//1 55//1 44//1
f 45//1 54//1 55//1
f 46//1 54//1 45//1
f 47//1 54//1 46//1
f 47//1 53//1 54//1
f 48//1 53//1 47//1
f 49//1 53//1 48//1
f 50//1 53//1 49//1
f 50//1 52//1 53//1
f 51//1 52//1 50//1
