# Blender v2.80 (sub 75) OBJ File: ''
# www.blender.org
mtllib four.mtl
o Text
v -0.274060 1.574403 0.088707
v -0.203258 1.574403 0.088449
v 0.378136 0.612901 0.033649
v 0.378116 0.510371 0.028031
v -0.109068 0.510371 0.029806
v -0.109170 0.000000 0.001842
v -0.274374 0.000000 0.002444
v -0.274273 0.510371 0.030408
v -0.397333 0.510371 0.030856
v -0.397293 0.710874 0.041842
v -0.274233 0.710874 0.041393
v -0.105569 1.152891 0.064998
v -0.108940 1.152891 0.065010
v -0.109028 0.710874 0.040792
v 0.157321 0.710874 0.039822
vn -0.0036 0.0547 -0.9985
vn 0.0000 -1.0000 0.0000
vn 0.0000 1.0000 0.0000
usemtl None
s off
f 3//1 1//1 2//1
f 3//1 12//1 1//1
f 12//1 13//1 1//1
f 13//1 11//1 1//1
f 3//1 15//1 12//1
f 14//1 11//1 13//1
f 3//1 14//1 15//1
f 3//1 11//1 14//1
f 3//1 10//1 11//1
f 3//1 9//1 10//1
f 4//1 9//1 3//1
f 5//2 9//2 4//2
f 6//1 8//1 5//1
f 8//3 9//3 5//3
f 6//1 7//1 8//1
