# Blender v2.80 (sub 75) OBJ File: ''
# www.blender.org
mtllib gameover.mtl
o Text
v -8.597256 4.963043 0.569779
v -8.597488 0.000000 0.561940
v -8.970060 0.000000 0.573020
v -8.969959 2.154048 0.576423
v -9.125830 2.154048 0.581059
v -9.172766 2.151167 0.582450
v -9.219042 2.140706 0.583810
v -9.265425 2.119936 0.585156
v -9.312679 2.086128 0.586508
v -9.361572 2.036551 0.587884
v -9.412868 1.968480 0.589302
v -9.467333 1.879182 0.590781
v -9.525734 1.765931 0.592338
v -9.588833 1.625997 0.593994
v -9.657398 1.456650 0.595765
v -9.732197 1.255163 0.597671
v -9.813997 1.018806 0.599730
v -10.156202 0.000000 0.608297
v -10.601007 0.000000 0.621526
v -10.558615 0.112165 0.620442
v -10.520422 0.213262 0.619466
v -10.485870 0.304960 0.618584
v -10.454411 0.388925 0.617781
v -10.425488 0.466827 0.617044
v -10.398542 0.540331 0.616359
v -10.373020 0.611107 0.615711
v -10.348372 0.680821 0.615089
v -10.324039 0.751142 0.614476
v -10.299473 0.823737 0.613860
v -10.274111 0.900274 0.613227
v -10.247400 0.982420 0.612562
v -10.198996 1.133725 0.611362
v -10.152308 1.278359 0.610202
v -10.106833 1.416323 0.609068
v -10.062073 1.547616 0.607944
v -10.017525 1.672238 0.606816
v -9.972687 1.790189 0.605669
v -9.927055 1.901469 0.604488
v -9.880133 2.006078 0.603258
v -9.831413 2.104017 0.601964
v -9.780397 2.195286 0.600591
v -9.726585 2.279883 0.599124
v -9.669470 2.357809 0.597549
v -9.736296 2.415075 0.599627
v -9.797932 2.481184 0.601565
v -9.854259 2.555885 0.603358
v -9.905165 2.638924 0.605003
v -9.950523 2.730049 0.606496
v -9.990219 2.829007 0.607833
v -10.024132 2.935546 0.609010
v -10.052145 3.049412 0.610023
v -10.074139 3.170353 0.610869
v -10.089993 3.298116 0.611542
v -10.099588 3.432450 0.612040
v -10.102810 3.573100 0.612358
v -10.096066 3.780837 0.612486
v -10.076145 3.974221 0.612199
v -10.043501 4.152546 0.611510
v -9.998581 4.315104 0.610431
v -9.941835 4.461186 0.608975
v -9.873711 4.590087 0.607153
v -9.794655 4.701097 0.604977
v -9.705122 4.793511 0.602460
v -9.605555 4.866620 0.599615
v -9.496408 4.919717 0.596452
v -9.378124 4.952094 0.592986
v -9.251156 4.963043 0.589227
v -8.969856 4.351759 0.579894
v -9.209364 4.351759 0.587018
v -9.295185 4.345905 0.589561
v -9.372240 4.328579 0.591825
v -9.440798 4.300136 0.593819
v -9.501118 4.260929 0.595551
v -9.553463 4.211311 0.597029
v -9.598103 4.151636 0.598262
v -9.635294 4.082258 0.599259
v -9.665308 4.003531 0.600027
v -9.688404 3.915809 0.600575
v -9.704847 3.819446 0.600912
v -9.714903 3.714794 0.601046
v -9.718834 3.602208 0.600985
v -9.717237 3.499178 0.600774
v -9.710148 3.398346 0.600404
v -9.696989 3.301001 0.599859
v -9.677174 3.208432 0.599123
v -9.650126 3.121927 0.598182
v -9.615261 3.042774 0.597020
v -9.572002 2.972264 0.595622
v -9.519766 2.911684 0.593972
v -9.457973 2.862323 0.592057
v -9.386042 2.825469 0.589859
v -9.303391 2.802412 0.587364
v -9.209436 2.794440 0.584558
v -8.969929 2.794440 0.577434
v -8.160055 4.963043 0.556777
v -6.688780 4.963043 0.513020
v -6.689013 0.000000 0.505180
v -8.194504 0.000000 0.549955
v -8.194473 0.640393 0.550966
v -7.061554 0.640393 0.517273
v -7.061481 2.183156 0.519710
v -8.122168 2.183156 0.551255
v -8.122137 2.823549 0.552267
v -7.061451 2.823549 0.520721
v -7.061382 4.322650 0.523089
v -8.160086 4.322650 0.555765
v -6.403650 4.963043 0.504540
v -6.034883 4.963043 0.493573
v -5.259490 1.477269 0.465001
v -4.479969 4.963043 0.447329
v -4.107398 4.963043 0.436248
v -5.229146 -0.043663 0.461694
v -5.305182 -0.043663 0.463955
v -1.149759 2.481521 0.344363
v -1.160813 2.148594 0.344165
v -1.193422 1.825395 0.344624
v -1.246809 1.515588 0.345722
v -1.320194 1.222837 0.347442
v -1.412797 0.950806 0.349766
v -1.523839 0.703158 0.352676
v -1.652543 0.483558 0.356157
v -1.798128 0.295669 0.360190
v -1.959818 0.143156 0.364757
v -2.136831 0.029681 0.369842
v -2.328388 -0.041090 0.375428
v -2.533712 -0.065495 0.381496
v -2.745798 -0.040951 0.387842
v -2.942554 0.030187 0.393806
v -3.123390 0.144179 0.399364
v -3.287709 0.297287 0.404493
v -3.434919 0.485769 0.409170
v -3.564425 0.705887 0.413369
v -3.675633 0.953901 0.417069
v -3.767953 1.226071 0.420245
v -3.840785 1.518658 0.422873
v -3.893540 1.827922 0.424931
v -3.925621 2.150123 0.426395
v -3.936437 2.481521 0.427240
v -3.925303 2.822092 0.427448
v -3.892456 3.150281 0.426990
v -3.838674 3.462805 0.425884
v -3.764735 3.756377 0.424149
v -3.671419 4.027713 0.421803
v -3.559504 4.273529 0.418863
v -3.429770 4.490539 0.415348
v -3.282996 4.675459 0.411275
v -3.119961 4.825004 0.406663
v -2.941443 4.935888 0.401529
v -2.748222 5.004827 0.395891
v -2.541077 5.028537 0.389768
v -2.337203 5.004689 0.383667
v -2.146281 4.935383 0.377880
v -1.969221 4.823980 0.372438
v -1.806935 4.673842 0.367374
v -1.660333 4.488328 0.362720
v -1.530324 4.270800 0.358510
v -1.417822 4.024618 0.354775
v -1.323734 3.753143 0.351547
v -1.248975 3.459734 0.348860
v -1.194452 3.147754 0.346745
v -1.161076 2.820563 0.345235
v -1.533734 2.481521 0.355782
v -1.542509 2.748057 0.356465
v -1.568207 3.000695 0.357628
v -1.609853 3.237667 0.359242
v -1.666469 3.457204 0.361273
v -1.737077 3.657537 0.363689
v -1.820703 3.836897 0.366460
v -1.916368 3.993517 0.369553
v -2.023097 4.125627 0.372936
v -2.139913 4.231457 0.376577
v -2.265837 4.309241 0.380445
v -2.399894 4.357208 0.384508
v -2.541108 4.373590 0.388734
v -2.683196 4.357208 0.392934
v -2.817987 4.309241 0.396867
v -2.944515 4.231458 0.400507
v -3.061817 4.125627 0.403828
v -3.168929 3.993517 0.406805
v -3.264890 3.836898 0.409411
v -3.348732 3.657537 0.411621
v -3.419494 3.457204 0.413409
v -3.476212 3.237667 0.414748
v -3.517920 3.000695 0.415614
v -3.543659 2.748057 0.415980
v -3.552461 2.481521 0.415821
v -3.543684 2.216515 0.415141
v -3.517969 1.964875 0.413978
v -3.476282 1.728446 0.412364
v -3.419585 1.509073 0.410331
v -3.348843 1.308601 0.407910
v -3.265017 1.128874 0.405133
v -3.169071 0.971737 0.402031
v -3.061972 0.839033 0.398636
v -2.944679 0.732608 0.394980
v -2.818159 0.654307 0.391093
v -2.683372 0.605974 0.387008
v -2.541286 0.589452 0.382756
v -2.400070 0.605973 0.378582
v -2.266008 0.654307 0.374672
v -2.140077 0.732608 0.371050
v -2.023252 0.839033 0.367744
v -1.916510 0.971736 0.364779
v -1.820829 1.128874 0.362182
v -1.737187 1.308601 0.359979
v -1.666560 1.509073 0.358195
v -1.609923 1.728446 0.356858
v -1.568255 1.964875 0.355992
v -1.542534 2.216515 0.355625
v 0.222787 4.963043 0.307466
v 1.694061 4.963043 0.263709
v 1.693829 0.000000 0.255869
v 0.188338 0.000000 0.300643
v 0.188369 0.640393 0.301655
v 1.321288 0.640393 0.267961
v 1.321361 2.183156 0.270398
v 0.260674 2.183156 0.301944
v 0.260703 2.823549 0.302955
v 1.321390 2.823549 0.271410
v 1.321461 4.322650 0.273778
v 0.222757 4.322650 0.306454
v 2.252917 4.963043 0.247088
v 2.598876 4.963043 0.236799
v 3.461776 2.925430 0.207914
v 4.321066 4.963043 0.185580
v 4.670826 4.963043 0.175178
v 4.670593 0.000000 0.167338
v 4.298023 0.000000 0.178419
v 4.298204 3.864187 0.184523
v 4.290601 3.864187 0.184749
v 3.492144 1.943009 0.205458
v 3.431316 1.943009 0.207267
v 2.633041 3.864187 0.234046
v 2.625437 3.864187 0.234272
v 2.625256 0.000000 0.228168
v 2.252685 0.000000 0.239248
v 6.107887 4.992152 0.132485
v 6.370207 4.992152 0.124683
v 7.483883 0.000000 0.083669
v 7.103709 0.000000 0.094976
v 6.776828 1.462715 0.107010
v 5.674322 1.462715 0.139799
v 5.328295 0.000000 0.147778
v 4.948121 0.000000 0.159084
v 6.244698 3.900573 0.126690
v 5.826422 2.103107 0.136288
v 6.632391 2.103107 0.112318
v 7.738715 2.445135 0.079956
v 8.609314 2.445135 0.054064
v 8.609283 1.804743 0.053052
v 8.111256 1.804743 0.067864
v 8.111207 0.785936 0.066255
v 8.155965 0.759140 0.064881
v 8.200933 0.733480 0.063503
v 8.246166 0.709185 0.062120
v 8.291716 0.686481 0.060729
v 8.337634 0.665597 0.059330
v 8.383976 0.646760 0.057922
v 8.430793 0.630197 0.056504
v 8.478138 0.616135 0.055073
v 8.526064 0.604803 0.053630
v 8.574624 0.596426 0.052173
v 8.623871 0.591234 0.050700
v 8.673856 0.589452 0.049210
v 8.823880 0.605413 0.044774
v 8.965431 0.652252 0.040638
v 9.097638 0.728401 0.036827
v 9.219629 0.832295 0.033363
v 9.330532 0.962366 0.030270
v 9.429478 1.117049 0.027572
v 9.515593 1.294775 0.025292
v 9.588007 1.493980 0.023453
v 9.645848 1.713096 0.022079
v 9.688247 1.950556 0.021194
v 9.714330 2.204794 0.020820
v 9.723226 2.474244 0.020981
v 9.714310 2.737865 0.021663
v 9.688260 2.988903 0.022835
v 9.646157 3.225387 0.024461
v 9.589084 3.445345 0.026506
v 9.518123 3.646807 0.028935
v 9.434357 3.827802 0.031713
v 9.338867 3.986358 0.034803
v 9.232738 4.120506 0.038172
v 9.117049 4.228274 0.041783
v 8.992885 4.307692 0.045601
v 8.861326 4.356788 0.049591
v 8.723456 4.373590 0.053718
v 8.645451 4.370111 0.056033
v 8.567338 4.359710 0.058339
v 8.489173 4.342435 0.060637
v 8.411007 4.318338 0.062923
v 8.332893 4.287469 0.065198
v 8.254886 4.249878 0.067458
v 8.177036 4.205617 0.069703
v 8.099397 4.154736 0.071932
v 8.022022 4.097284 0.074142
v 7.944963 4.033314 0.076333
v 7.868274 3.962876 0.078502
v 7.792006 3.886019 0.080649
v 7.792041 4.606460 0.081787
v 7.889866 4.683557 0.079000
v 7.980603 4.751431 0.076408
v 8.065241 4.810563 0.073985
v 8.144770 4.861432 0.071700
v 8.220180 4.904518 0.069525
v 8.292460 4.940302 0.067432
v 8.362602 4.969263 0.065392
v 8.431596 4.991882 0.063376
v 8.500431 5.008639 0.061355
v 8.570097 5.020014 0.059301
v 8.641584 5.026487 0.057185
v 8.715884 5.028537 0.054979
v 8.909376 5.005784 0.049188
v 9.093519 4.939291 0.043607
v 9.266890 4.831712 0.038280
v 9.428061 4.685701 0.033256
v 9.575607 4.503911 0.028581
v 9.708104 4.288993 0.024300
v 9.824125 4.043603 0.020462
v 9.922244 3.770393 0.017112
v 10.001038 3.472015 0.014297
v 10.059078 3.151124 0.012063
v 10.094941 2.810372 0.010458
v 10.107201 2.452413 0.009527
v 10.095204 2.097127 0.009322
v 10.060122 1.760541 0.009833
v 10.003259 1.444977 0.011026
v 9.925923 1.152761 0.012864
v 9.829422 0.886217 0.015312
v 9.715061 0.647670 0.018336
v 9.584148 0.439445 0.021901
v 9.437991 0.263866 0.025970
v 9.277896 0.123258 0.030509
v 9.105168 0.019945 0.035483
v 8.921118 -0.043747 0.040856
v 8.727050 -0.065495 0.046593
v 8.638338 -0.063035 0.049235
v 8.552452 -0.055522 0.051801
v 8.468888 -0.042753 0.054307
v 8.387148 -0.024527 0.056767
v 8.306727 -0.000640 0.059196
v 8.227125 0.029109 0.061611
v 8.147840 0.064922 0.064025
v 8.068371 0.107002 0.066455
v 7.988215 0.155550 0.068916
v 7.906872 0.210769 0.071422
v 7.823840 0.272861 0.073990
v 7.738616 0.342028 0.076634
vn -0.0297 0.0016 -0.9996
vn -0.0297 0.0015 -0.9996
usemtl None
s off
f 2//1 68//1 1//1
f 68//1 67//1 1//1
f 68//1 66//1 67//1
f 68//1 65//1 66//1
f 68//1 64//1 65//1
f 68//1 63//1 64//1
f 68//1 62//1 63//1
f 68//1 61//1 62//1
f 68//1 60//1 61//1
f 68//1 69//1 60//1
f 69//1 59//1 60//1
f 2//1 94//1 68//1
f 70//1 59//1 69//1
f 71//1 59//1 70//1
f 72//1 59//1 71//1
f 72//1 58//1 59//1
f 73//1 58//1 72//1
f 74//1 58//1 73//1
f 75//1 58//1 74//1
f 75//1 57//1 58//1
f 76//1 57//1 75//1
f 77//1 57//1 76//1
f 78//1 57//1 77//1
f 78//1 56//1 57//1
f 79//1 56//1 78//1
f 80//1 56//1 79//1
f 80//1 55//1 56//1
f 81//1 55//1 80//1
f 82//1 55//1 81//1
f 82//1 54//1 55//1
f 83//1 54//1 82//1
f 83//1 53//1 54//1
f 84//1 53//1 83//1
f 85//1 53//1 84//1
f 85//1 52//1 53//1
f 86//1 52//1 85//1
f 86//1 51//1 52//1
f 87//1 51//1 86//1
f 87//1 50//1 51//1
f 88//1 50//1 87//1
f 89//1 50//1 88//1
f 89//1 49//1 50//1
f 90//1 49//1 89//1
f 91//1 49//1 90//1
f 91//1 48//1 49//1
f 92//1 48//1 91//1
f 93//1 48//1 92//1
f 2//1 4//1 94//1
f 4//1 93//1 94//1
f 4//1 48//1 93//1
f 4//1 47//1 48//1
f 4//1 46//1 47//1
f 4//1 45//1 46//1
f 4//1 44//1 45//1
f 4//1 43//1 44//1
f 4//1 42//1 43//1
f 4//1 41//1 42//1
f 4//1 5//1 41//1
f 5//1 6//1 41//1
f 6//1 40//1 41//1
f 2//1 3//1 4//1
f 7//1 40//1 6//1
f 8//1 40//1 7//1
f 9//1 40//1 8//1
f 9//1 39//1 40//1
f 10//1 39//1 9//1
f 11//1 39//1 10//1
f 11//1 38//1 39//1
f 12//1 38//1 11//1
f 12//1 37//1 38//1
f 13//1 37//1 12//1
f 13//1 36//1 37//1
f 14//1 36//1 13//1
f 14//1 35//1 36//1
f 15//1 35//1 14//1
f 15//1 34//1 35//1
f 16//1 34//1 15//1
f 16//1 33//1 34//1
f 16//1 32//1 33//1
f 17//1 32//1 16//1
f 17//1 31//1 32//1
f 18//1 31//1 17//1
f 18//1 30//1 31//1
f 18//1 29//1 30//1
f 18//1 28//1 29//1
f 18//1 27//1 28//1
f 18//1 26//1 27//1
f 18//1 25//1 26//1
f 18//1 24//1 25//1
f 18//1 23//1 24//1
f 18//1 22//1 23//1
f 18//1 21//1 22//1
f 18//1 20//1 21//1
f 18//1 19//1 20//1
f 97//1 105//1 96//1
f 105//1 95//1 96//1
f 105//1 106//1 95//1
f 97//1 104//1 105//1
f 97//1 101//1 104//1
f 101//1 103//1 104//1
f 101//1 102//1 103//1
f 97//1 100//1 101//1
f 97//1 99//1 100//1
f 97//1 98//1 99//1
f 112//1 110//1 111//1
f 112//1 109//1 110//1
f 109//1 107//1 108//1
f 109//1 113//1 107//1
f 112//1 113//1 109//1
f 151//1 149//1 150//1
f 151//1 148//1 149//1
f 152//1 148//1 151//1
f 152//1 147//1 148//1
f 153//1 147//1 152//1
f 153//1 146//1 147//1
f 154//1 146//1 153//1
f 154//1 145//1 146//1
f 155//1 145//1 154//1
f 155//1 144//1 145//1
f 156//1 174//1 155//1
f 174//1 144//1 155//1
f 156//1 173//1 174//1
f 175//1 144//1 174//1
f 176//1 144//1 175//1
f 156//1 172//1 173//1
f 177//1 144//1 176//1
f 156//1 171//1 172//1
f 177//1 143//1 144//1
f 157//1 171//1 156//1
f 178//1 143//1 177//1
f 157//1 170//1 171//1
f 179//1 143//1 178//1
f 157//1 169//1 170//1
f 179//1 142//1 143//1
f 158//1 169//1 157//1
f 180//1 142//1 179//1
f 158//1 168//1 169//1
f 181//1 142//1 180//1
f 158//1 167//1 168//1
f 181//1 141//1 142//1
f 159//1 167//1 158//1
f 182//1 141//1 181//1
f 159//1 166//1 167//1
f 182//1 140//1 141//1
f 160//1 166//1 159//1
f 183//1 140//1 182//1
f 160//1 165//1 166//1
f 184//1 140//1 183//1
f 160//1 164//1 165//1
f 184//1 139//1 140//1
f 161//1 164//1 160//1
f 185//1 139//1 184//1
f 161//1 163//1 164//1
f 185//1 138//1 139//1
f 114//1 163//1 161//1
f 186//1 138//1 185//1
f 114//1 162//1 163//1
f 115//1 162//1 114//1
f 115//1 209//1 162//1
f 187//1 138//1 186//1
f 187//1 137//1 138//1
f 115//1 208//1 209//1
f 188//1 137//1 187//1
f 188//1 136//1 137//1
f 116//1 208//1 115//1
f 116//1 207//1 208//1
f 189//1 136//1 188//1
f 189//1 135//1 136//1
f 117//1 207//1 116//1
f 190//1 135//1 189//1
f 117//1 206//1 207//1
f 190//1 134//1 135//1
f 118//1 206//1 117//1
f 191//1 134//1 190//1
f 118//1 205//1 206//1
f 192//1 134//1 191//1
f 118//1 204//1 205//1
f 192//1 133//1 134//1
f 119//1 204//1 118//1
f 193//1 133//1 192//1
f 119//1 203//1 204//1
f 194//1 133//1 193//1
f 119//1 202//1 203//1
f 194//1 132//1 133//1
f 120//1 202//1 119//1
f 195//1 132//1 194//1
f 120//1 201//1 202//1
f 196//1 132//1 195//1
f 120//1 200//1 201//1
f 196//1 131//1 132//1
f 121//1 200//1 120//1
f 197//1 131//1 196//1
f 121//1 199//1 200//1
f 198//1 131//1 197//1
f 121//1 198//1 199//1
f 121//1 131//1 198//1
f 121//1 130//1 131//1
f 122//1 130//1 121//1
f 122//1 129//1 130//1
f 123//1 129//1 122//1
f 123//1 128//1 129//1
f 124//1 128//1 123//1
f 124//1 127//1 128//1
f 125//1 127//1 124//1
f 125//1 126//1 127//1
f 212//1 220//1 211//1
f 220//1 210//1 211//1
f 220//1 221//1 210//1
f 212//1 219//1 220//1
f 212//1 216//1 219//1
f 216//1 218//1 219//1
f 216//1 217//1 218//1
f 212//1 215//1 216//1
f 212//1 214//1 215//1
f 212//1 213//1 214//1
f 227//1 225//1 226//1
f 227//1 229//1 225//1
f 229//1 230//1 225//1
f 230//1 224//1 225//1
f 224//1 222//1 223//1
f 224//1 233//1 222//1
f 233//1 234//1 222//1
f 234//1 236//1 222//1
f 227//1 228//1 229//1
f 231//1 224//1 230//1
f 224//1 232//1 233//1
f 235//1 236//1 234//1
f 231//1 232//1 224//1
f 239//1 237//1 238//1
f 239//1 245//1 237//1
f 245//1 244//1 237//1
f 239//1 247//1 245//1
f 246//1 244//1 245//1
f 239//1 241//1 247//1
f 241//1 246//1 247//1
f 241//1 242//1 246//1
f 242//1 244//1 246//1
f 239//1 240//1 241//1
f 243//1 244//1 242//1
f 314//1 312//1 313//1
f 314//1 311//1 312//1
f 314//1 310//1 311//1
f 314//1 309//1 310//1
f 315//1 309//1 314//1
f 315//1 308//1 309//1
f 315//1 307//1 308//1
f 315//1 306//1 307//1
f 316//1 306//1 315//1
f 316//1 305//1 306//1
f 316//1 304//1 305//1
f 317//1 304//1 316//1
f 317//1 303//1 304//1
f 317//1 302//1 303//1
f 318//1 302//1 317//1
f 318//1 301//1 302//1
f 318//1 290//1 301//1
f 290//1 291//1 301//1
f 291//1 292//1 301//1
f 292//1 293//1 301//1
f 293//1 294//1 301//1
f 294//1 295//1 301//1
f 295//1 296//1 301//1
f 296//1 297//1 301//1
f 297//1 298//1 301//1
f 298//1 299//1 301//1
f 299//1 300//1 301//1
f 319//1 288//1 318//1
f 288//1 289//1 318//1
f 289//2 290//2 318//2
f 319//1 287//1 288//1
f 319//1 286//1 287//1
f 319//1 285//1 286//1
f 320//1 285//1 319//1
f 320//1 284//1 285//1
f 320//1 283//1 284//1
f 321//1 283//1 320//1
f 321//1 282//1 283//1
f 321//1 281//1 282//1
f 322//1 281//1 321//1
f 322//1 280//1 281//1
f 323//1 280//1 322//1
f 323//1 279//1 280//1
f 323//1 278//1 279//1
f 324//1 278//1 323//1
f 324//1 277//1 278//1
f 325//1 277//1 324//1
f 325//1 276//1 277//1
f 325//1 275//1 276//1
f 326//1 275//1 325//1
f 250//1 248//1 249//1
f 250//1 251//1 248//1
f 251//1 349//1 248//1
f 326//1 274//1 275//1
f 327//1 274//1 326//1
f 327//1 273//1 274//1
f 252//1 349//1 251//1
f 328//1 273//1 327//1
f 328//1 272//1 273//1
f 328//1 271//1 272//1
f 329//1 271//1 328//1
f 329//1 270//1 271//1
f 330//1 270//1 329//1
f 330//1 269//1 270//1
f 330//1 268//1 269//1
f 331//1 268//1 330//1
f 331//1 267//1 268//1
f 253//1 349//1 252//1
f 254//1 349//1 253//1
f 255//1 349//1 254//1
f 331//1 266//1 267//1
f 256//1 349//1 255//1
f 257//1 349//1 256//1
f 258//1 349//1 257//1
f 331//1 265//1 266//1
f 332//1 265//1 331//1
f 259//1 349//1 258//1
f 260//1 349//1 259//1
f 261//1 349//1 260//1
f 332//1 264//1 265//1
f 262//1 349//1 261//1
f 263//1 349//1 262//1
f 264//1 349//1 263//1
f 332//1 349//1 264//1
f 333//1 349//1 332//1
f 333//1 348//1 349//1
f 333//1 347//1 348//1
f 334//1 347//1 333//1
f 334//1 346//1 347//1
f 334//1 345//1 346//1
f 335//1 345//1 334//1
f 335//1 344//1 345//1
f 335//1 343//1 344//1
f 335//1 342//1 343//1
f 336//1 342//1 335//1
f 336//1 341//1 342//1
f 336//1 340//1 341//1
f 336//1 339//1 340//1
f 337//1 339//1 336//1
f 337//1 338//1 339//1
