# Blender v2.80 (sub 75) OBJ File: ''
# www.blender.org
mtllib nine.mtl
o Text
v 0.081316 -0.020506 0.000025
v 0.015580 0.039439 0.003549
v -0.046526 0.107034 0.007478
v -0.104604 0.181385 0.011764
v -0.158255 0.261599 0.016354
v -0.207082 0.346781 0.021199
v -0.250687 0.436037 0.026249
v -0.288672 0.528473 0.031452
v -0.320640 0.623196 0.036758
v -0.346192 0.719311 0.042118
v -0.364930 0.815925 0.047480
v -0.376458 0.912143 0.052794
v -0.380376 1.007071 0.058009
v -0.377219 1.086678 0.062360
v -0.367999 1.162227 0.066465
v -0.353043 1.233171 0.070298
v -0.332680 1.298965 0.073829
v -0.307237 1.359062 0.077029
v -0.277043 1.412918 0.079870
v -0.242424 1.459986 0.082323
v -0.203710 1.499721 0.084359
v -0.161228 1.531575 0.085950
v -0.115306 1.555004 0.087066
v -0.066272 1.569462 0.087680
v -0.014454 1.574403 0.087762
v 0.037065 1.569742 0.087319
v 0.085268 1.556291 0.086406
v 0.129934 1.534850 0.085069
v 0.170841 1.506218 0.083351
v 0.207767 1.471194 0.081297
v 0.240489 1.430576 0.078953
v 0.268784 1.385164 0.076361
v 0.292432 1.335757 0.073568
v 0.311208 1.283154 0.070617
v 0.324892 1.228154 0.067554
v 0.333261 1.171555 0.064422
v 0.336092 1.114158 0.061267
v 0.333155 1.052108 0.057878
v 0.324611 0.992757 0.054657
v 0.310823 0.936617 0.051631
v 0.292154 0.884204 0.048828
v 0.268967 0.836031 0.046273
v 0.241626 0.792613 0.043993
v 0.210492 0.754463 0.042016
v 0.175929 0.722097 0.040369
v 0.138301 0.696028 0.039077
v 0.097970 0.676771 0.038169
v 0.055298 0.664839 0.037671
v 0.010650 0.660748 0.037609
v -0.004648 0.661265 0.037693
v -0.020145 0.662794 0.037834
v -0.035760 0.665305 0.038028
v -0.051409 0.668765 0.038275
v -0.067011 0.673142 0.038571
v -0.082484 0.678406 0.038916
v -0.097746 0.684524 0.039307
v -0.112716 0.691465 0.039742
v -0.127311 0.699197 0.040218
v -0.141449 0.707688 0.040735
v -0.155048 0.716907 0.041290
v -0.168027 0.726823 0.041880
v -0.158111 0.677447 0.039139
v -0.144415 0.627447 0.036349
v -0.127019 0.577051 0.033525
v -0.106006 0.526489 0.030678
v -0.081457 0.475990 0.027821
v -0.053455 0.425784 0.024969
v -0.022082 0.376100 0.022132
v 0.012582 0.327167 0.019325
v 0.050453 0.279216 0.016559
v 0.091450 0.232475 0.013849
v 0.135491 0.187174 0.011206
v 0.182495 0.143542 0.008645
v 0.170888 1.116436 0.061994
v 0.169273 1.151432 0.063917
v 0.164526 1.184505 0.065747
v 0.156816 1.215442 0.067470
v 0.146314 1.244029 0.069074
v 0.133189 1.270053 0.070548
v 0.117612 1.293300 0.071879
v 0.099750 1.313557 0.073053
v 0.079775 1.330610 0.074061
v 0.057856 1.344245 0.074887
v 0.034163 1.354248 0.075522
v 0.008865 1.360407 0.075952
v -0.017867 1.362508 0.076164
v -0.043959 1.359865 0.076114
v -0.068981 1.352191 0.075785
v -0.092704 1.339866 0.075196
v -0.114900 1.323268 0.074367
v -0.135341 1.302778 0.073319
v -0.153798 1.278775 0.072071
v -0.170044 1.251639 0.070644
v -0.183849 1.221751 0.069056
v -0.194985 1.189489 0.067329
v -0.203225 1.155233 0.065482
v -0.208339 1.119363 0.063535
v -0.210100 1.082260 0.061509
v -0.210097 1.072701 0.060985
v -0.210064 1.063325 0.060471
v -0.209974 1.054028 0.059961
v -0.209795 1.044707 0.059450
v -0.209499 1.035260 0.058931
v -0.209057 1.025583 0.058400
v -0.208440 1.015574 0.057849
v -0.207618 1.005130 0.057274
v -0.206561 0.994148 0.056668
v -0.205242 0.982525 0.056026
v -0.203630 0.970158 0.055343
v -0.201696 0.956945 0.054612
v -0.186047 0.942842 0.053782
v -0.170327 0.930131 0.053028
v -0.154608 0.918781 0.052349
v -0.138958 0.908760 0.051743
v -0.123448 0.900037 0.051209
v -0.108149 0.892579 0.050744
v -0.093131 0.886356 0.050349
v -0.078463 0.881335 0.050020
v -0.064217 0.877485 0.049757
v -0.050462 0.874774 0.049559
v -0.037269 0.873170 0.049423
v -0.024708 0.872643 0.049348
v 0.001804 0.874873 0.049374
v 0.027240 0.881366 0.049637
v 0.051366 0.891832 0.050123
v 0.073947 0.905976 0.050815
v 0.094749 0.923506 0.051700
v 0.113538 0.944129 0.052762
v 0.130081 0.967553 0.053985
v 0.144141 0.993485 0.055354
v 0.155487 1.021632 0.056855
v 0.163883 1.051701 0.058472
v 0.169095 1.083400 0.060190
vn -0.0036 0.0547 -0.9985
usemtl None
s off
f 26//1 24//1 25//1
f 27//1 24//1 26//1
f 27//1 23//1 24//1
f 28//1 23//1 27//1
f 28//1 22//1 23//1
f 29//1 22//1 28//1
f 29//1 21//1 22//1
f 30//1 21//1 29//1
f 30//1 20//1 21//1
f 31//1 20//1 30//1
f 31//1 19//1 20//1
f 32//1 19//1 31//1
f 32//1 18//1 19//1
f 33//1 85//1 32//1
f 85//1 86//1 32//1
f 86//1 18//1 32//1
f 87//1 18//1 86//1
f 33//1 84//1 85//1
f 88//1 18//1 87//1
f 88//1 17//1 18//1
f 33//1 83//1 84//1
f 89//1 17//1 88//1
f 33//1 82//1 83//1
f 90//1 17//1 89//1
f 34//1 82//1 33//1
f 34//1 81//1 82//1
f 91//1 17//1 90//1
f 34//1 80//1 81//1
f 92//1 17//1 91//1
f 92//1 16//1 17//1
f 34//1 79//1 80//1
f 35//1 79//1 34//1
f 93//1 16//1 92//1
f 35//1 78//1 79//1
f 94//1 16//1 93//1
f 35//1 77//1 78//1
f 94//1 15//1 16//1
f 36//1 77//1 35//1
f 95//1 15//1 94//1
f 36//1 76//1 77//1
f 96//1 15//1 95//1
f 36//1 75//1 76//1
f 37//1 75//1 36//1
f 96//1 14//1 15//1
f 97//1 14//1 96//1
f 37//1 74//1 75//1
f 98//1 14//1 97//1
f 37//1 133//1 74//1
f 38//1 133//1 37//1
f 98//1 13//1 14//1
f 38//1 132//1 133//1
f 99//1 13//1 98//1
f 100//1 13//1 99//1
f 101//1 13//1 100//1
f 102//1 13//1 101//1
f 39//1 132//1 38//1
f 39//1 131//1 132//1
f 103//1 13//1 102//1
f 104//1 13//1 103//1
f 105//1 13//1 104//1
f 39//1 130//1 131//1
f 106//1 13//1 105//1
f 106//1 12//1 13//1
f 107//1 12//1 106//1
f 108//1 12//1 107//1
f 39//1 129//1 130//1
f 40//1 129//1 39//1
f 109//1 12//1 108//1
f 110//1 12//1 109//1
f 40//1 128//1 129//1
f 111//1 12//1 110//1
f 40//1 127//1 128//1
f 112//1 12//1 111//1
f 41//1 127//1 40//1
f 113//1 12//1 112//1
f 41//1 126//1 127//1
f 114//1 12//1 113//1
f 114//1 11//1 12//1
f 115//1 11//1 114//1
f 41//1 125//1 126//1
f 116//1 11//1 115//1
f 117//1 11//1 116//1
f 41//1 124//1 125//1
f 118//1 11//1 117//1
f 42//1 124//1 41//1
f 42//1 123//1 124//1
f 119//1 11//1 118//1
f 120//1 11//1 119//1
f 42//1 122//1 123//1
f 121//1 11//1 120//1
f 122//1 11//1 121//1
f 42//1 11//1 122//1
f 43//1 11//1 42//1
f 43//1 10//1 11//1
f 44//1 10//1 43//1
f 45//1 61//1 44//1
f 61//1 10//1 44//1
f 45//1 60//1 61//1
f 62//1 10//1 61//1
f 46//1 60//1 45//1
f 62//1 9//1 10//1
f 46//1 59//1 60//1
f 46//1 58//1 59//1
f 46//1 57//1 58//1
f 47//1 57//1 46//1
f 47//1 56//1 57//1
f 47//1 55//1 56//1
f 47//1 54//1 55//1
f 63//1 9//1 62//1
f 48//1 54//1 47//1
f 48//1 53//1 54//1
f 48//1 52//1 53//1
f 48//1 51//1 52//1
f 49//1 51//1 48//1
f 49//1 50//1 51//1
f 64//1 9//1 63//1
f 64//1 8//1 9//1
f 65//1 8//1 64//1
f 65//1 7//1 8//1
f 66//1 7//1 65//1
f 67//1 7//1 66//1
f 67//1 6//1 7//1
f 68//1 6//1 67//1
f 69//1 6//1 68//1
f 69//1 5//1 6//1
f 70//1 5//1 69//1
f 71//1 5//1 70//1
f 71//1 4//1 5//1
f 72//1 4//1 71//1
f 73//1 4//1 72//1
f 73//1 3//1 4//1
f 1//1 3//1 73//1
f 1//1 2//1 3//1
