# Blender v2.80 (sub 75) OBJ File: ''
# www.blender.org
mtllib three.mtl
o Text
v 0.260269 1.296433 0.071531
v 0.240971 1.307784 0.072223
v 0.222610 1.317941 0.072846
v 0.205067 1.326943 0.073403
v 0.188227 1.334829 0.073897
v 0.171971 1.341639 0.074329
v 0.156184 1.347413 0.074703
v 0.140748 1.352190 0.075021
v 0.125546 1.356010 0.075286
v 0.110460 1.358912 0.075500
v 0.095375 1.360936 0.075665
v 0.080172 1.362121 0.075786
v 0.064735 1.362508 0.075863
v 0.035323 1.360676 0.075870
v 0.007855 1.355261 0.075673
v -0.017554 1.346381 0.075279
v -0.040787 1.334154 0.074694
v -0.061725 1.318699 0.073923
v -0.080253 1.300135 0.072974
v -0.096252 1.278581 0.071851
v -0.109607 1.254155 0.070561
v -0.120199 1.226976 0.069111
v -0.127912 1.197163 0.067505
v -0.132628 1.164833 0.065751
v -0.134231 1.130107 0.063854
v -0.132657 1.095994 0.061979
v -0.127923 1.064348 0.060228
v -0.120026 1.035267 0.058606
v -0.108969 1.008843 0.057118
v -0.094750 0.985173 0.055769
v -0.077370 0.964350 0.054565
v -0.056828 0.946471 0.053510
v -0.033125 0.931629 0.052611
v -0.006261 0.919921 0.051871
v 0.023765 0.911440 0.051297
v 0.056952 0.906282 0.050894
v 0.093301 0.904541 0.050666
v 0.093260 0.699481 0.039431
v 0.054067 0.699679 0.039584
v 0.018251 0.694798 0.039447
v -0.014183 0.685170 0.039038
v -0.043229 0.671127 0.038374
v -0.068881 0.653003 0.037475
v -0.091133 0.631128 0.036357
v -0.109979 0.605836 0.035040
v -0.125413 0.577458 0.033541
v -0.137429 0.546327 0.031879
v -0.146022 0.512776 0.030072
v -0.151185 0.477136 0.028138
v -0.152912 0.439739 0.026095
v -0.151428 0.403263 0.024091
v -0.147034 0.369129 0.022205
v -0.139841 0.337494 0.020446
v -0.129962 0.308518 0.018822
v -0.117507 0.282358 0.017343
v -0.102586 0.259173 0.016019
v -0.085312 0.239120 0.014857
v -0.065796 0.222359 0.013867
v -0.044148 0.209047 0.013059
v -0.020480 0.199343 0.012441
v 0.005097 0.193404 0.012023
v 0.032472 0.191389 0.011813
v 0.053546 0.192197 0.011780
v 0.074632 0.194627 0.011837
v 0.095742 0.198687 0.011982
v 0.116887 0.204385 0.012217
v 0.138079 0.211728 0.012542
v 0.159331 0.220724 0.012958
v 0.180653 0.231382 0.013464
v 0.202057 0.243709 0.014062
v 0.223555 0.257713 0.014751
v 0.245159 0.273402 0.015532
v 0.266880 0.290785 0.016405
v 0.288730 0.309868 0.017371
v 0.288682 0.068353 0.004138
v 0.268031 0.054639 0.003462
v 0.247392 0.041993 0.002844
v 0.226776 0.030439 0.002286
v 0.206195 0.020000 0.001789
v 0.185662 0.010700 0.001354
v 0.165187 0.002563 0.000983
v 0.144783 -0.004387 0.000677
v 0.124461 -0.010126 0.000436
v 0.104233 -0.014632 0.000263
v 0.084111 -0.017879 0.000158
v 0.064106 -0.019845 0.000123
v 0.044230 -0.020506 0.000160
v -0.007521 -0.016535 0.000566
v -0.056366 -0.004873 0.001383
v -0.102003 0.014098 0.002588
v -0.144126 0.039999 0.004161
v -0.182431 0.072451 0.006079
v -0.216615 0.111074 0.008319
v -0.246372 0.155488 0.010861
v -0.271399 0.205313 0.013682
v -0.291391 0.260170 0.016761
v -0.306043 0.319678 0.020075
v -0.315053 0.383458 0.023602
v -0.318114 0.451131 0.027321
v -0.317045 0.490984 0.029501
v -0.313821 0.530529 0.031656
v -0.308397 0.569361 0.033764
v -0.300726 0.607078 0.035803
v -0.290760 0.643276 0.037750
v -0.278454 0.677551 0.039583
v -0.263759 0.709501 0.041280
v -0.246630 0.738721 0.042819
v -0.227021 0.764809 0.044177
v -0.204883 0.787360 0.045332
v -0.180170 0.805971 0.046261
v -0.152836 0.820239 0.046944
v -0.177674 0.840064 0.048120
v -0.199982 0.860934 0.049345
v -0.219832 0.883038 0.050628
v -0.237294 0.906566 0.051981
v -0.252438 0.931708 0.053414
v -0.265333 0.958654 0.054937
v -0.276050 0.987593 0.056562
v -0.284660 1.018716 0.058299
v -0.291233 1.052213 0.060158
v -0.295838 1.088272 0.062150
v -0.298546 1.127085 0.064287
v -0.299428 1.168840 0.066578
v -0.296676 1.228512 0.069838
v -0.288587 1.284323 0.072866
v -0.275372 1.336021 0.075651
v -0.257241 1.383351 0.078178
v -0.234404 1.426062 0.080435
v -0.207073 1.463898 0.082408
v -0.175459 1.496609 0.084086
v -0.139772 1.523940 0.085453
v -0.100222 1.545637 0.086498
v -0.057022 1.561450 0.087207
v -0.010380 1.571122 0.087567
v 0.039491 1.574403 0.087565
v 0.060576 1.573973 0.087465
v 0.080901 1.572673 0.087320
v 0.100546 1.570487 0.087128
v 0.119594 1.567399 0.086890
v 0.138127 1.563393 0.086603
v 0.156226 1.558454 0.086266
v 0.173974 1.552565 0.085879
v 0.191453 1.545711 0.085440
v 0.208744 1.537876 0.084947
v 0.225930 1.529045 0.084401
v 0.243091 1.519201 0.083799
v 0.260312 1.508328 0.083141
vn -0.0036 0.0547 -0.9985
vn -0.0036 0.0548 -0.9985
vn -0.0037 0.0546 -0.9985
usemtl None
s off
f 136//1 134//1 135//1
f 137//1 134//1 136//1
f 138//1 134//1 137//1
f 138//1 133//1 134//1
f 139//1 133//1 138//1
f 140//1 133//1 139//1
f 141//1 133//1 140//1
f 141//1 132//1 133//1
f 142//1 132//1 141//1
f 143//1 132//1 142//1
f 144//1 132//1 143//1
f 144//1 131//1 132//1
f 145//1 131//1 144//1
f 146//1 131//1 145//1
f 146//1 130//1 131//1
f 147//1 130//1 146//1
f 1//1 2//1 147//1
f 2//1 3//1 147//1
f 3//1 4//1 147//1
f 4//1 5//1 147//1
f 5//1 130//1 147//1
f 5//1 6//1 130//1
f 6//1 7//1 130//1
f 7//1 129//1 130//1
f 7//2 8//2 129//2
f 8//1 9//1 129//1
f 9//1 128//1 129//1
f 9//3 10//3 128//3
f 10//1 11//1 128//1
f 11//1 12//1 128//1
f 12//1 127//1 128//1
f 12//1 13//1 127//1
f 13//1 14//1 127//1
f 14//1 126//1 127//1
f 15//1 126//1 14//1
f 16//1 126//1 15//1
f 17//1 126//1 16//1
f 17//1 125//1 126//1
f 18//1 125//1 17//1
f 19//1 125//1 18//1
f 20//1 125//1 19//1
f 20//1 124//1 125//1
f 21//1 124//1 20//1
f 22//1 124//1 21//1
f 22//1 123//1 124//1
f 23//1 123//1 22//1
f 24//1 123//1 23//1
f 24//1 122//1 123//1
f 25//1 122//1 24//1
f 26//1 122//1 25//1
f 26//1 121//1 122//1
f 27//1 121//1 26//1
f 27//1 120//1 121//1
f 28//1 120//1 27//1
f 28//1 119//1 120//1
f 29//1 119//1 28//1
f 29//1 118//1 119//1
f 30//1 118//1 29//1
f 30//1 117//1 118//1
f 31//1 117//1 30//1
f 32//1 117//1 31//1
f 32//1 116//1 117//1
f 33//1 116//1 32//1
f 33//1 115//1 116//1
f 34//1 115//1 33//1
f 35//1 115//1 34//1
f 36//1 115//1 35//1
f 36//1 114//1 115//1
f 37//1 114//1 36//1
f 38//1 114//1 37//1
f 38//1 113//1 114//1
f 38//1 112//1 113//1
f 38//1 111//1 112//1
f 38//1 110//1 111//1
f 38//1 109//1 110//1
f 38//1 108//1 109//1
f 38//1 107//1 108//1
f 38//1 106//1 107//1
f 38//1 39//1 106//1
f 39//1 105//1 106//1
f 40//1 105//1 39//1
f 41//1 105//1 40//1
f 42//1 105//1 41//1
f 42//1 104//1 105//1
f 43//1 104//1 42//1
f 44//1 104//1 43//1
f 44//1 103//1 104//1
f 45//1 103//1 44//1
f 45//1 102//1 103//1
f 46//1 102//1 45//1
f 47//1 102//1 46//1
f 47//1 101//1 102//1
f 48//1 101//1 47//1
f 48//1 100//1 101//1
f 49//1 100//1 48//1
f 49//1 99//1 100//1
f 50//1 99//1 49//1
f 50//1 98//1 99//1
f 51//1 98//1 50//1
f 52//1 98//1 51//1
f 52//1 97//1 98//1
f 53//1 97//1 52//1
f 54//1 97//1 53//1
f 54//1 96//1 97//1
f 75//1 73//1 74//1
f 55//1 96//1 54//1
f 75//1 72//1 73//1
f 56//1 96//1 55//1
f 75//1 71//1 72//1
f 56//1 95//1 96//1
f 57//1 95//1 56//1
f 75//1 70//1 71//1
f 75//1 69//1 70//1
f 58//1 95//1 57//1
f 75//1 68//1 69//1
f 59//1 95//1 58//1
f 75//1 67//1 68//1
f 75//1 66//1 67//1
f 60//1 95//1 59//1
f 60//1 94//1 95//1
f 75//1 65//1 66//1
f 61//1 94//1 60//1
f 75//1 64//1 65//1
f 75//1 63//1 64//1
f 62//1 94//1 61//1
f 75//1 62//1 63//1
f 75//1 94//1 62//1
f 75//1 93//1 94//1
f 75//1 92//1 93//1
f 75//1 91//1 92//1
f 76//1 91//1 75//1
f 77//1 91//1 76//1
f 78//1 91//1 77//1
f 78//1 90//1 91//1
f 79//1 90//1 78//1
f 80//1 90//1 79//1
f 80//1 89//1 90//1
f 81//1 89//1 80//1
f 82//1 89//1 81//1
f 83//1 89//1 82//1
f 83//1 88//1 89//1
f 84//1 88//1 83//1
f 85//1 88//1 84//1
f 85//1 87//1 88//1
f 86//1 87//1 85//1
