# Blender v2.80 (sub 75) OBJ File: ''
# www.blender.org
mtllib two.mtl
o Text
v -0.388964 0.211895 0.014471
v 0.051019 0.211895 0.012869
v -0.009820 0.310957 0.018518
v -0.064386 0.402504 0.023733
v -0.112866 0.487373 0.028560
v -0.155447 0.566404 0.033045
v -0.192316 0.640435 0.037235
v -0.223660 0.710304 0.041178
v -0.249667 0.776851 0.044919
v -0.270523 0.840914 0.048505
v -0.286416 0.903331 0.051983
v -0.297533 0.964941 0.055399
v -0.304060 1.026583 0.058800
v -0.306186 1.089095 0.062233
v -0.303233 1.158951 0.066050
v -0.294585 1.224725 0.069622
v -0.280518 1.286038 0.072931
v -0.261307 1.342508 0.075955
v -0.237227 1.393757 0.078675
v -0.208553 1.439405 0.081072
v -0.175561 1.479072 0.083125
v -0.138525 1.512379 0.084815
v -0.097721 1.538945 0.086122
v -0.053424 1.558390 0.087026
v -0.005910 1.570336 0.087508
v 0.044548 1.574403 0.087547
v 0.067594 1.573403 0.087408
v 0.090406 1.570395 0.087160
v 0.113030 1.565360 0.086802
v 0.135513 1.558285 0.086332
v 0.157902 1.549153 0.085750
v 0.180244 1.537948 0.085055
v 0.202586 1.524654 0.084245
v 0.224973 1.509256 0.083320
v 0.247455 1.491738 0.082278
v 0.270076 1.472084 0.081119
v 0.292884 1.450278 0.079841
v 0.315925 1.426304 0.078444
v 0.315869 1.146056 0.063089
v 0.292869 1.183684 0.065234
v 0.270196 1.216962 0.067140
v 0.247827 1.246094 0.068818
v 0.225738 1.271286 0.070278
v 0.203905 1.292744 0.071534
v 0.182306 1.310673 0.072595
v 0.160917 1.325280 0.073473
v 0.139715 1.336770 0.074180
v 0.118676 1.345348 0.074726
v 0.097776 1.351221 0.075124
v 0.076994 1.354594 0.075385
v 0.056305 1.355672 0.075519
v 0.028697 1.353197 0.075484
v 0.002476 1.345936 0.075182
v -0.022166 1.334134 0.074625
v -0.045036 1.318036 0.073826
v -0.065939 1.297887 0.072798
v -0.084683 1.273933 0.071554
v -0.101075 1.246419 0.070106
v -0.114921 1.215590 0.068468
v -0.126029 1.181692 0.066651
v -0.134205 1.144969 0.064668
v -0.139255 1.105667 0.062533
v -0.140987 1.064032 0.060258
v -0.140432 1.032598 0.058534
v -0.138752 1.002999 0.056906
v -0.135948 0.974888 0.055356
v -0.132020 0.947916 0.053863
v -0.126968 0.921735 0.052410
v -0.120792 0.895997 0.050978
v -0.113492 0.870354 0.049546
v -0.105068 0.844458 0.048097
v -0.095521 0.817960 0.046610
v -0.084850 0.790514 0.045067
v -0.073055 0.761769 0.043449
v -0.060137 0.731380 0.041737
v -0.034163 0.673878 0.038492
v -0.005397 0.614462 0.035132
v 0.025722 0.553590 0.031683
v 0.058754 0.491721 0.028173
v 0.093262 0.429315 0.024628
v 0.128806 0.366829 0.021075
v 0.164946 0.304723 0.017540
v 0.201245 0.243456 0.014051
v 0.237263 0.183486 0.010634
v 0.272562 0.125272 0.007316
v 0.306702 0.069274 0.004123
v 0.339245 0.015949 0.001083
v 0.339241 0.000000 0.000209
v -0.389006 0.000000 0.002861
vn -0.0036 0.0547 -0.9985
usemtl None
s off
f 27//1 25//1 26//1
f 28//1 25//1 27//1
f 29//1 25//1 28//1
f 29//1 24//1 25//1
f 30//1 24//1 29//1
f 30//1 23//1 24//1
f 31//1 23//1 30//1
f 32//1 23//1 31//1
f 32//1 22//1 23//1
f 33//1 22//1 32//1
f 34//1 22//1 33//1
f 34//1 21//1 22//1
f 35//1 21//1 34//1
f 36//1 21//1 35//1
f 36//1 20//1 21//1
f 37//1 20//1 36//1
f 38//1 20//1 37//1
f 38//1 19//1 20//1
f 39//1 40//1 38//1
f 40//1 41//1 38//1
f 41//1 42//1 38//1
f 42//1 43//1 38//1
f 43//1 44//1 38//1
f 44//1 45//1 38//1
f 45//1 46//1 38//1
f 46//1 47//1 38//1
f 47//1 48//1 38//1
f 48//1 49//1 38//1
f 49//1 50//1 38//1
f 50//1 19//1 38//1
f 50//1 51//1 19//1
f 51//1 18//1 19//1
f 52//1 18//1 51//1
f 53//1 18//1 52//1
f 54//1 18//1 53//1
f 54//1 17//1 18//1
f 55//1 17//1 54//1
f 56//1 17//1 55//1
f 57//1 17//1 56//1
f 57//1 16//1 17//1
f 58//1 16//1 57//1
f 59//1 16//1 58//1
f 59//1 15//1 16//1
f 60//1 15//1 59//1
f 61//1 15//1 60//1
f 61//1 14//1 15//1
f 62//1 14//1 61//1
f 63//1 14//1 62//1
f 63//1 13//1 14//1
f 64//1 13//1 63//1
f 65//1 13//1 64//1
f 65//1 12//1 13//1
f 66//1 12//1 65//1
f 67//1 12//1 66//1
f 67//1 11//1 12//1
f 68//1 11//1 67//1
f 69//1 11//1 68//1
f 69//1 10//1 11//1
f 70//1 10//1 69//1
f 71//1 10//1 70//1
f 72//1 10//1 71//1
f 72//1 9//1 10//1
f 73//1 9//1 72//1
f 74//1 9//1 73//1
f 74//1 8//1 9//1
f 75//1 8//1 74//1
f 76//1 8//1 75//1
f 76//1 7//1 8//1
f 77//1 7//1 76//1
f 77//1 6//1 7//1
f 78//1 6//1 77//1
f 78//1 5//1 6//1
f 79//1 5//1 78//1
f 80//1 5//1 79//1
f 80//1 4//1 5//1
f 81//1 4//1 80//1
f 81//1 3//1 4//1
f 82//1 3//1 81//1
f 82//1 2//1 3//1
f 83//1 2//1 82//1
f 84//1 2//1 83//1
f 84//1 1//1 2//1
f 84//1 89//1 1//1
f 85//1 89//1 84//1
f 86//1 89//1 85//1
f 87//1 89//1 86//1
f 88//1 89//1 87//1
