# Blender v2.80 (sub 75) OBJ File: ''
# www.blender.org
mtllib zero.mtl
o Text
v -0.395594 0.776948 0.045456
v -0.392523 0.893152 0.051812
v -0.383530 1.002155 0.057751
v -0.368873 1.103406 0.063246
v -0.348808 1.196350 0.068265
v -0.323595 1.280434 0.072780
v -0.293490 1.355103 0.076762
v -0.258751 1.419804 0.080181
v -0.219636 1.473983 0.083007
v -0.176403 1.517086 0.085211
v -0.129309 1.548560 0.086764
v -0.078611 1.567850 0.087636
v -0.024568 1.574403 0.087799
v 0.029472 1.567850 0.087243
v 0.080162 1.548559 0.086001
v 0.127244 1.517086 0.084105
v 0.170460 1.473983 0.081586
v 0.209554 1.419804 0.078475
v 0.244266 1.355103 0.074804
v 0.274342 1.280434 0.070603
v 0.299521 1.196351 0.065904
v 0.319549 1.103406 0.060738
v 0.334166 1.002156 0.055137
v 0.343115 0.893152 0.049132
v 0.346139 0.776948 0.042754
v 0.343069 0.660745 0.036398
v 0.334076 0.551741 0.030459
v 0.319418 0.450491 0.024964
v 0.299354 0.357547 0.019945
v 0.274141 0.273463 0.015429
v 0.244036 0.198794 0.011448
v 0.209297 0.134093 0.008029
v 0.170182 0.079914 0.005203
v 0.126949 0.036811 0.002999
v 0.079854 0.005338 0.001446
v 0.029157 -0.013953 0.000574
v -0.024886 -0.020506 0.000411
v -0.078927 -0.013953 0.000967
v -0.129617 0.005337 0.002209
v -0.176699 0.036811 0.004105
v -0.219915 0.079914 0.006624
v -0.259008 0.134093 0.009735
v -0.293721 0.198794 0.013406
v -0.323796 0.273463 0.017607
v -0.348976 0.357546 0.022306
v -0.369003 0.450491 0.027472
v -0.383620 0.551741 0.033073
v -0.392569 0.660745 0.039078
v -0.230390 0.776948 0.044854
v -0.228807 0.688846 0.040021
v -0.224086 0.606994 0.035519
v -0.216320 0.531660 0.031363
v -0.205603 0.463114 0.027568
v -0.192028 0.401625 0.024150
v -0.175688 0.347462 0.021122
v -0.156678 0.300894 0.018502
v -0.135091 0.262190 0.016302
v -0.111020 0.231618 0.014540
v -0.084560 0.209448 0.013228
v -0.055803 0.195949 0.012384
v -0.024844 0.191389 0.012021
v 0.006117 0.195949 0.012158
v 0.034879 0.209448 0.012793
v 0.061348 0.231618 0.013912
v 0.085431 0.262190 0.015499
v 0.107034 0.300894 0.017541
v 0.126062 0.347462 0.020023
v 0.142423 0.401625 0.022931
v 0.156023 0.463114 0.026251
v 0.166768 0.531660 0.029968
v 0.174564 0.606994 0.034067
v 0.179318 0.688846 0.038534
v 0.180935 0.776948 0.043356
v 0.179353 0.865051 0.048189
v 0.174632 0.946903 0.052691
v 0.166866 1.022237 0.056847
v 0.156149 1.090783 0.060642
v 0.142573 1.152271 0.064060
v 0.126234 1.206434 0.067088
v 0.107224 1.253003 0.069708
v 0.085636 1.291707 0.071908
v 0.061566 1.322279 0.073670
v 0.035106 1.344449 0.074982
v 0.006349 1.357948 0.075826
v -0.024610 1.362508 0.076189
v -0.055571 1.357948 0.076051
v -0.084333 1.344449 0.075417
v -0.110803 1.322279 0.074298
v -0.134885 1.291707 0.072711
v -0.156488 1.253003 0.070669
v -0.175517 1.206434 0.068187
v -0.191878 1.152271 0.065278
v -0.205478 1.090783 0.061959
v -0.216223 1.022237 0.058242
v -0.224019 0.946903 0.054143
v -0.228772 0.865051 0.049675
vn -0.0036 0.0547 -0.9985
usemtl None
s off
f 14//1 12//1 13//1
f 14//1 11//1 12//1
f 15//1 11//1 14//1
f 15//1 10//1 11//1
f 16//1 10//1 15//1
f 16//1 9//1 10//1
f 17//1 9//1 16//1
f 18//1 9//1 17//1
f 18//1 8//1 9//1
f 19//1 8//1 18//1
f 19//1 85//1 8//1
f 85//1 7//1 8//1
f 19//1 84//1 85//1
f 86//1 7//1 85//1
f 19//1 83//1 84//1
f 87//1 7//1 86//1
f 20//1 83//1 19//1
f 87//1 6//1 7//1
f 20//1 82//1 83//1
f 88//1 6//1 87//1
f 20//1 81//1 82//1
f 89//1 6//1 88//1
f 20//1 80//1 81//1
f 90//1 6//1 89//1
f 21//1 80//1 20//1
f 90//1 5//1 6//1
f 21//1 79//1 80//1
f 91//1 5//1 90//1
f 21//1 78//1 79//1
f 92//1 5//1 91//1
f 22//1 78//1 21//1
f 92//1 4//1 5//1
f 22//1 77//1 78//1
f 93//1 4//1 92//1
f 23//1 77//1 22//1
f 93//1 3//1 4//1
f 23//1 76//1 77//1
f 94//1 3//1 93//1
f 23//1 75//1 76//1
f 95//1 3//1 94//1
f 24//1 75//1 23//1
f 95//1 2//1 3//1
f 24//1 74//1 75//1
f 96//1 2//1 95//1
f 25//1 74//1 24//1
f 96//1 1//1 2//1
f 25//1 73//1 74//1
f 49//1 1//1 96//1
f 26//1 73//1 25//1
f 26//1 72//1 73//1
f 50//1 1//1 49//1
f 50//1 48//1 1//1
f 26//1 71//1 72//1
f 51//1 48//1 50//1
f 27//1 71//1 26//1
f 51//1 47//1 48//1
f 27//1 70//1 71//1
f 52//1 47//1 51//1
f 28//1 70//1 27//1
f 52//1 46//1 47//1
f 53//1 46//1 52//1
f 28//1 69//1 70//1
f 54//1 46//1 53//1
f 28//1 68//1 69//1
f 29//1 68//1 28//1
f 54//1 45//1 46//1
f 55//1 45//1 54//1
f 29//1 67//1 68//1
f 30//1 67//1 29//1
f 55//1 44//1 45//1
f 56//1 44//1 55//1
f 30//1 66//1 67//1
f 57//1 44//1 56//1
f 30//1 65//1 66//1
f 31//1 65//1 30//1
f 57//1 43//1 44//1
f 58//1 43//1 57//1
f 31//1 64//1 65//1
f 59//1 43//1 58//1
f 31//1 63//1 64//1
f 60//1 43//1 59//1
f 31//1 62//1 63//1
f 32//1 62//1 31//1
f 60//1 42//1 43//1
f 61//1 42//1 60//1
f 32//1 61//1 62//1
f 32//1 42//1 61//1
f 33//1 42//1 32//1
f 33//1 41//1 42//1
f 34//1 41//1 33//1
f 34//1 40//1 41//1
f 35//1 40//1 34//1
f 35//1 39//1 40//1
f 36//1 39//1 35//1
f 36//1 38//1 39//1
f 37//1 38//1 36//1
